<svg xmlns="http://www.w3.org/2000/svg" xmlns:xlink="http://www.w3.org/1999/xlink" width="500" zoomAndPan="magnify" viewBox="0 0 375 374.999991" height="500" preserveAspectRatio="xMidYMid meet" version="1.0"><defs><clipPath id="a51e19d3c7"><path d="M 315 249 L 345.796875 249 L 345.796875 273 L 315 273 Z M 315 249 " clip-rule="nonzero"/></clipPath></defs><rect x="-37.5" width="450" fill="#ffffff" y="-37.499999" height="449.999989" fill-opacity="1"/><rect x="-37.5" width="450" fill="#060b0e" y="-37.499999" height="449.999989" fill-opacity="1"/><path fill="#c2c2c2" d="M 196.167969 158.949219 C 196.167969 159.875 196.078125 160.789062 195.898438 161.695312 C 195.71875 162.601562 195.449219 163.484375 195.097656 164.335938 C 194.742188 165.191406 194.308594 166.003906 193.792969 166.769531 C 193.277344 167.539062 192.695312 168.25 192.039062 168.90625 C 191.382812 169.558594 190.671875 170.144531 189.902344 170.65625 C 189.132812 171.167969 188.320312 171.605469 187.464844 171.957031 C 186.609375 172.3125 185.726562 172.578125 184.820312 172.757812 C 183.910156 172.9375 182.992188 173.027344 182.066406 173.027344 C 181.140625 173.027344 180.226562 172.9375 179.316406 172.757812 C 178.410156 172.578125 177.527344 172.3125 176.671875 171.957031 C 175.816406 171.605469 175.003906 171.167969 174.234375 170.65625 C 173.464844 170.144531 172.75 169.558594 172.097656 168.90625 C 171.441406 168.25 170.859375 167.539062 170.34375 166.769531 C 169.828125 166.003906 169.394531 165.191406 169.039062 164.335938 C 168.6875 163.484375 168.417969 162.601562 168.238281 161.695312 C 168.058594 160.789062 167.964844 159.875 167.964844 158.949219 C 167.964844 158.023438 168.058594 157.109375 168.238281 156.203125 C 168.417969 155.296875 168.6875 154.414062 169.039062 153.558594 C 169.394531 152.707031 169.828125 151.894531 170.34375 151.125 C 170.859375 150.355469 171.441406 149.644531 172.097656 148.992188 C 172.75 148.339844 173.464844 147.753906 174.234375 147.242188 C 175.003906 146.726562 175.816406 146.292969 176.671875 145.941406 C 177.527344 145.585938 178.410156 145.320312 179.316406 145.140625 C 180.226562 144.957031 181.140625 144.867188 182.066406 144.867188 C 182.992188 144.867188 183.910156 144.957031 184.820312 145.140625 C 185.726562 145.320312 186.609375 145.585938 187.464844 145.941406 C 188.320312 146.292969 189.132812 146.726562 189.902344 147.242188 C 190.671875 147.753906 191.382812 148.339844 192.039062 148.992188 C 192.695312 149.644531 193.277344 150.355469 193.792969 151.125 C 194.308594 151.894531 194.742188 152.707031 195.097656 153.558594 C 195.449219 154.414062 195.71875 155.296875 195.898438 156.203125 C 196.078125 157.109375 196.167969 158.023438 196.167969 158.949219 Z M 196.167969 158.949219 " fill-opacity="1" fill-rule="nonzero"/><path fill="#c2c2c2" d="M 182.066406 128.378906 C 165.15625 128.378906 151.445312 142.066406 151.445312 158.953125 C 151.445312 175.84375 165.15625 189.53125 182.066406 189.53125 C 198.980469 189.53125 212.691406 175.84375 212.691406 158.953125 C 212.691406 142.066406 198.980469 128.378906 182.066406 128.378906 Z M 182.066406 186.335938 C 166.925781 186.335938 154.644531 174.074219 154.644531 158.953125 C 154.644531 143.832031 166.925781 131.574219 182.066406 131.574219 C 197.210938 131.574219 209.492188 143.832031 209.492188 158.953125 C 209.492188 174.074219 197.210938 186.335938 182.066406 186.335938 Z M 182.066406 186.335938 " fill-opacity="1" fill-rule="nonzero"/><path fill="#c2c2c2" d="M 185.992188 137.621094 C 185.992188 138.140625 185.890625 138.640625 185.691406 139.121094 C 185.492188 139.597656 185.210938 140.023438 184.839844 140.390625 C 184.472656 140.757812 184.050781 141.039062 183.570312 141.238281 C 183.089844 141.4375 182.589844 141.539062 182.066406 141.539062 C 181.546875 141.539062 181.046875 141.4375 180.566406 141.238281 C 180.085938 141.039062 179.664062 140.757812 179.292969 140.390625 C 178.925781 140.023438 178.644531 139.597656 178.445312 139.121094 C 178.246094 138.640625 178.144531 138.140625 178.144531 137.621094 C 178.144531 137.101562 178.246094 136.601562 178.445312 136.121094 C 178.644531 135.640625 178.925781 135.21875 179.292969 134.851562 C 179.664062 134.484375 180.085938 134.199219 180.566406 134.003906 C 181.046875 133.804688 181.546875 133.703125 182.066406 133.703125 C 182.589844 133.703125 183.089844 133.804688 183.570312 134.003906 C 184.050781 134.199219 184.472656 134.484375 184.839844 134.851562 C 185.210938 135.21875 185.492188 135.640625 185.691406 136.121094 C 185.890625 136.601562 185.992188 137.101562 185.992188 137.621094 Z M 185.992188 137.621094 " fill-opacity="1" fill-rule="nonzero"/><path fill="#c2c2c2" d="M 173.285156 176.070312 C 173.285156 176.589844 173.183594 177.089844 172.984375 177.570312 C 172.785156 178.050781 172.503906 178.472656 172.136719 178.839844 C 171.765625 179.207031 171.34375 179.488281 170.863281 179.6875 C 170.382812 179.886719 169.882812 179.988281 169.363281 179.988281 C 168.839844 179.988281 168.339844 179.886719 167.859375 179.6875 C 167.378906 179.488281 166.957031 179.207031 166.585938 178.839844 C 166.21875 178.472656 165.9375 178.050781 165.738281 177.570312 C 165.539062 177.089844 165.4375 176.589844 165.4375 176.070312 C 165.4375 175.550781 165.539062 175.050781 165.738281 174.570312 C 165.9375 174.089844 166.21875 173.667969 166.585938 173.300781 C 166.957031 172.933594 167.378906 172.652344 167.859375 172.453125 C 168.339844 172.253906 168.839844 172.152344 169.363281 172.152344 C 169.882812 172.152344 170.382812 172.253906 170.863281 172.453125 C 171.34375 172.652344 171.765625 172.933594 172.136719 173.300781 C 172.503906 173.667969 172.785156 174.089844 172.984375 174.570312 C 173.183594 175.050781 173.285156 175.550781 173.285156 176.070312 Z M 173.285156 176.070312 " fill-opacity="1" fill-rule="nonzero"/><path fill="#c2c2c2" d="M 198.695312 176.070312 C 198.695312 176.589844 198.597656 177.089844 198.398438 177.570312 C 198.199219 178.050781 197.914062 178.472656 197.546875 178.839844 C 197.179688 179.207031 196.757812 179.488281 196.273438 179.6875 C 195.792969 179.886719 195.292969 179.988281 194.773438 179.988281 C 194.253906 179.988281 193.753906 179.886719 193.273438 179.6875 C 192.792969 179.488281 192.367188 179.207031 192 178.839844 C 191.632812 178.472656 191.347656 178.050781 191.152344 177.570312 C 190.953125 177.089844 190.851562 176.589844 190.851562 176.070312 C 190.851562 175.550781 190.953125 175.050781 191.152344 174.570312 C 191.347656 174.089844 191.632812 173.667969 192 173.300781 C 192.367188 172.933594 192.792969 172.652344 193.273438 172.453125 C 193.753906 172.253906 194.253906 172.152344 194.773438 172.152344 C 195.292969 172.152344 195.792969 172.253906 196.273438 172.453125 C 196.757812 172.652344 197.179688 172.933594 197.546875 173.300781 C 197.914062 173.667969 198.199219 174.089844 198.398438 174.570312 C 198.597656 175.050781 198.695312 175.550781 198.695312 176.070312 Z M 198.695312 176.070312 " fill-opacity="1" fill-rule="nonzero"/><path fill="#c2c2c2" d="M 165.953125 151.597656 C 165.953125 152.117188 165.851562 152.617188 165.652344 153.097656 C 165.453125 153.578125 165.171875 154 164.800781 154.367188 C 164.433594 154.734375 164.011719 155.019531 163.53125 155.21875 C 163.050781 155.414062 162.550781 155.515625 162.027344 155.515625 C 161.507812 155.515625 161.007812 155.414062 160.527344 155.21875 C 160.046875 155.019531 159.625 154.734375 159.253906 154.367188 C 158.886719 154 158.605469 153.578125 158.40625 153.097656 C 158.207031 152.617188 158.105469 152.117188 158.105469 151.597656 C 158.105469 151.078125 158.207031 150.578125 158.40625 150.101562 C 158.605469 149.621094 158.886719 149.195312 159.253906 148.828125 C 159.625 148.460938 160.046875 148.179688 160.527344 147.980469 C 161.007812 147.78125 161.507812 147.683594 162.027344 147.683594 C 162.550781 147.683594 163.050781 147.78125 163.53125 147.980469 C 164.011719 148.179688 164.433594 148.460938 164.800781 148.828125 C 165.171875 149.195312 165.453125 149.621094 165.652344 150.101562 C 165.851562 150.578125 165.953125 151.078125 165.953125 151.597656 Z M 165.953125 151.597656 " fill-opacity="1" fill-rule="nonzero"/><path fill="#c2c2c2" d="M 206.023438 151.597656 C 206.023438 152.117188 205.925781 152.617188 205.726562 153.097656 C 205.527344 153.578125 205.242188 154 204.875 154.367188 C 204.507812 154.734375 204.082031 155.019531 203.601562 155.21875 C 203.121094 155.414062 202.621094 155.515625 202.101562 155.515625 C 201.582031 155.515625 201.082031 155.414062 200.601562 155.21875 C 200.121094 155.019531 199.695312 154.734375 199.328125 154.367188 C 198.960938 154 198.675781 153.578125 198.476562 153.097656 C 198.277344 152.617188 198.179688 152.117188 198.179688 151.597656 C 198.179688 151.078125 198.277344 150.578125 198.476562 150.101562 C 198.675781 149.621094 198.960938 149.195312 199.328125 148.828125 C 199.695312 148.460938 200.121094 148.179688 200.601562 147.980469 C 201.082031 147.78125 201.582031 147.683594 202.101562 147.683594 C 202.621094 147.683594 203.121094 147.78125 203.601562 147.980469 C 204.082031 148.179688 204.507812 148.460938 204.875 148.828125 C 205.242188 149.195312 205.527344 149.621094 205.726562 150.101562 C 205.925781 150.578125 206.023438 151.078125 206.023438 151.597656 Z M 206.023438 151.597656 " fill-opacity="1" fill-rule="nonzero"/><path fill="#c2c2c2" d="M 196.167969 158.949219 C 196.167969 159.875 196.078125 160.789062 195.898438 161.695312 C 195.71875 162.601562 195.449219 163.484375 195.097656 164.335938 C 194.742188 165.191406 194.308594 166.003906 193.792969 166.769531 C 193.277344 167.539062 192.695312 168.25 192.039062 168.90625 C 191.382812 169.558594 190.671875 170.144531 189.902344 170.65625 C 189.132812 171.167969 188.320312 171.605469 187.464844 171.957031 C 186.609375 172.3125 185.726562 172.578125 184.820312 172.757812 C 183.910156 172.9375 182.992188 173.027344 182.066406 173.027344 C 181.140625 173.027344 180.226562 172.9375 179.316406 172.757812 C 178.410156 172.578125 177.527344 172.3125 176.671875 171.957031 C 175.816406 171.605469 175.003906 171.167969 174.234375 170.65625 C 173.464844 170.144531 172.75 169.558594 172.097656 168.90625 C 171.441406 168.25 170.859375 167.539062 170.34375 166.769531 C 169.828125 166.003906 169.394531 165.191406 169.039062 164.335938 C 168.6875 163.484375 168.417969 162.601562 168.238281 161.695312 C 168.058594 160.789062 167.964844 159.875 167.964844 158.949219 C 167.964844 158.023438 168.058594 157.109375 168.238281 156.203125 C 168.417969 155.296875 168.6875 154.414062 169.039062 153.558594 C 169.394531 152.707031 169.828125 151.894531 170.34375 151.125 C 170.859375 150.355469 171.441406 149.644531 172.097656 148.992188 C 172.75 148.339844 173.464844 147.753906 174.234375 147.242188 C 175.003906 146.726562 175.816406 146.292969 176.671875 145.941406 C 177.527344 145.585938 178.410156 145.320312 179.316406 145.140625 C 180.226562 144.957031 181.140625 144.867188 182.066406 144.867188 C 182.992188 144.867188 183.910156 144.957031 184.820312 145.140625 C 185.726562 145.320312 186.609375 145.585938 187.464844 145.941406 C 188.320312 146.292969 189.132812 146.726562 189.902344 147.242188 C 190.671875 147.753906 191.382812 148.339844 192.039062 148.992188 C 192.695312 149.644531 193.277344 150.355469 193.792969 151.125 C 194.308594 151.894531 194.742188 152.707031 195.097656 153.558594 C 195.449219 154.414062 195.71875 155.296875 195.898438 156.203125 C 196.078125 157.109375 196.167969 158.023438 196.167969 158.949219 Z M 196.167969 158.949219 " fill-opacity="1" fill-rule="nonzero"/><path fill="#c2c2c2" d="M 214.808594 189.457031 C 223.632812 170.925781 223.632812 146.984375 214.8125 128.464844 C 212.359375 123.308594 212.375 117.320312 214.648438 112.160156 C 205.410156 105.738281 194.183594 101.960938 182.066406 101.960938 C 150.546875 101.960938 124.992188 127.480469 124.992188 158.953125 C 124.992188 190.429688 150.546875 215.945312 182.066406 215.945312 C 194.175781 215.945312 205.402344 212.179688 214.636719 205.753906 C 212.367188 200.59375 212.347656 194.613281 214.800781 189.457031 Z M 182.066406 192.832031 C 163.328125 192.832031 148.136719 177.660156 148.136719 158.953125 C 148.136719 140.246094 163.332031 125.074219 182.066406 125.074219 C 200.804688 125.074219 215.996094 140.246094 215.996094 158.953125 C 215.996094 177.660156 200.804688 192.832031 182.066406 192.832031 Z M 182.066406 192.832031 " fill-opacity="1" fill-rule="nonzero"/><path fill="#ec4140" d="M 253.097656 153.546875 L 253.097656 164.617188 L 246.230469 169.886719 C 245.839844 170.1875 245.628906 170.679688 245.695312 171.175781 C 246.15625 174.632812 246.8125 177.84375 247.621094 180.738281 L 247.621094 180.765625 C 248.058594 182.289062 247.785156 183.9375 246.847656 185.214844 C 245.492188 187.058594 244.289062 189.015625 243.226562 191.042969 C 239.160156 198.78125 233.617188 205.753906 226.808594 211.53125 C 226.101562 212.128906 225.042969 212.042969 224.460938 211.320312 L 221.125 207.203125 C 217.546875 202.777344 216.730469 196.675781 219.175781 191.53125 C 228.652344 171.621094 228.664062 146.300781 219.179688 126.386719 C 216.730469 121.242188 217.546875 115.144531 221.132812 110.714844 L 224.46875 106.601562 C 225.050781 105.882812 226.109375 105.792969 226.8125 106.394531 C 233.621094 112.175781 239.167969 119.15625 243.230469 126.894531 C 244.273438 128.890625 245.457031 130.800781 246.777344 132.617188 C 247.734375 133.929688 248.066406 135.597656 247.621094 137.160156 L 247.621094 137.175781 C 246.785156 140.15625 246.117188 143.46875 245.652344 147.039062 C 245.589844 147.535156 245.792969 148.027344 246.191406 148.332031 L 253.09375 153.554688 Z M 253.097656 153.546875 " fill-opacity="1" fill-rule="nonzero"/><path fill="#c2c2c2" d="M 36.371094 261.480469 C 36.371094 265.265625 40.359375 268.335938 45.285156 268.335938 L 57.890625 268.335938 L 57.890625 263.765625 L 48.734375 263.765625 L 48.734375 259.195312 L 62.472656 259.195312 L 62.472656 272.90625 L 45.285156 272.90625 C 37.019531 272.90625 30.324219 267.789062 30.324219 261.480469 C 30.324219 255.167969 37.019531 250.046875 45.285156 250.046875 L 62.472656 250.046875 L 62.472656 254.617188 L 45.285156 254.617188 C 40.359375 254.617188 36.371094 257.6875 36.371094 261.480469 Z M 36.371094 261.480469 " fill-opacity="1" fill-rule="nonzero"/><path fill="#c2c2c2" d="M 166.917969 263.742188 L 171.207031 263.742188 C 182.9375 263.742188 185.023438 249.832031 172.109375 249.832031 L 148.457031 249.832031 L 148.457031 272.90625 L 153.035156 272.90625 L 153.035156 263.742188 L 161.535156 263.742188 C 161.535156 272.90625 171.207031 272.90625 179.546875 272.90625 L 179.546875 268.046875 C 171.660156 268.046875 166.917969 268.238281 166.917969 263.742188 Z M 153.035156 259.164062 L 153.035156 254.402344 L 172.109375 254.402344 C 173.914062 254.402344 175.203125 255.464844 175.195312 256.949219 C 175.191406 258.195312 173.769531 259.164062 172.109375 259.164062 Z M 153.035156 259.164062 " fill-opacity="1" fill-rule="nonzero"/><path fill="#c2c2c2" d="M 73.878906 254.402344 L 73.878906 259.195312 L 92.410156 259.195312 L 92.410156 263.765625 L 73.878906 263.765625 L 73.878906 268.335938 L 101.496094 268.335938 L 101.496094 272.90625 L 69.304688 272.90625 L 69.304688 249.832031 L 101.496094 249.832031 L 101.496094 254.402344 Z M 73.878906 254.402344 " fill-opacity="1" fill-rule="nonzero"/><path fill="#c2c2c2" d="M 264.808594 272.910156 L 264.808594 249.832031 L 269.386719 249.832031 L 269.386719 272.910156 Z M 264.808594 272.910156 " fill-opacity="1" fill-rule="nonzero"/><path fill="#c2c2c2" d="M 124.859375 248.308594 L 106.261719 272.90625 L 112 272.90625 L 117.441406 265.765625 L 132.285156 265.765625 L 137.726562 272.90625 L 143.464844 272.90625 Z M 120.925781 261.195312 L 124.859375 256.035156 L 128.792969 261.195312 Z M 120.925781 261.195312 " fill-opacity="1" fill-rule="nonzero"/><path fill="#c2c2c2" d="M 303.859375 249.832031 L 303.859375 264.746094 L 276.246094 249.832031 L 276.246094 272.910156 L 280.820312 272.910156 L 280.820312 258.375 L 308.4375 272.910156 L 308.4375 249.832031 Z M 303.859375 249.832031 " fill-opacity="1" fill-rule="nonzero"/><path fill="#c2c2c2" d="M 210.214844 249.832031 L 186.976562 249.832031 L 186.976562 272.90625 L 191.550781 272.90625 L 191.550781 263.742188 L 210.214844 263.742188 C 215.082031 263.742188 219.03125 260.625 219.03125 256.785156 C 219.03125 252.941406 215.082031 249.832031 210.214844 249.832031 Z M 210.214844 259.164062 L 191.550781 259.164062 L 191.550781 254.402344 L 210.214844 254.402344 C 211.921875 254.402344 213.308594 255.472656 213.308594 256.785156 C 213.308594 258.097656 211.921875 259.164062 210.214844 259.164062 Z M 210.214844 259.164062 " fill-opacity="1" fill-rule="nonzero"/><g clip-path="url(#a51e19d3c7)"><path fill="#c2c2c2" d="M 347.234375 249.832031 L 315.546875 249.832031 L 315.546875 254.402344 L 329.101562 254.402344 L 329.101562 272.90625 L 333.679688 272.90625 L 333.679688 254.402344 L 347.234375 254.402344 Z M 347.234375 249.832031 " fill-opacity="1" fill-rule="nonzero"/></g><path fill="#c2c2c2" d="M 251.816406 254.78125 C 252.464844 254.78125 252.988281 255.304688 252.988281 255.953125 L 252.988281 266.804688 C 252.988281 267.453125 252.464844 267.976562 251.816406 267.976562 L 232.160156 267.976562 C 231.511719 267.976562 230.988281 267.453125 230.988281 266.804688 L 230.988281 255.953125 C 230.988281 255.304688 231.511719 254.78125 232.160156 254.78125 L 251.816406 254.78125 M 251.816406 249.953125 L 232.160156 249.953125 C 228.839844 249.953125 226.148438 252.640625 226.148438 255.953125 L 226.148438 266.804688 C 226.148438 270.121094 228.839844 272.808594 232.160156 272.808594 L 251.816406 272.808594 C 255.136719 272.808594 257.828125 270.121094 257.828125 266.804688 L 257.828125 255.953125 C 257.828125 252.640625 255.136719 249.953125 251.816406 249.953125 Z M 251.816406 249.953125 " fill-opacity="1" fill-rule="nonzero"/></svg>